<?xml version="1.0" encoding="UTF-8" standalone="no"?>
<!-- Created with Inkscape (http://www.inkscape.org/) -->

<svg
   width="119.55508mm"
   height="119.55508mm"
   viewBox="0 0 119.55508 119.55508"
   version="1.1"
   id="svg1"
   xml:space="preserve"
   inkscape:version="1.3.2 (091e20e, 2023-11-25)"
   sodipodi:docname="Logo.svg"
   inkscape:export-filename="Logo.png"
   inkscape:export-xdpi="96"
   inkscape:export-ydpi="96"
   xmlns:inkscape="http://www.inkscape.org/namespaces/inkscape"
   xmlns:sodipodi="http://sodipodi.sourceforge.net/DTD/sodipodi-0.dtd"
   xmlns="http://www.w3.org/2000/svg"
   xmlns:svg="http://www.w3.org/2000/svg"><sodipodi:namedview
     id="namedview1"
     pagecolor="#ffffff"
     bordercolor="#eeeeee"
     borderopacity="1"
     inkscape:showpageshadow="0"
     inkscape:pageopacity="0"
     inkscape:pagecheckerboard="false"
     inkscape:deskcolor="#505050"
     inkscape:document-units="mm"
     showgrid="true"
     inkscape:zoom="0.84096521"
     inkscape:cx="120.69465"
     inkscape:cy="429.26865"
     inkscape:window-width="1712"
     inkscape:window-height="1069"
     inkscape:window-x="1920"
     inkscape:window-y="38"
     inkscape:window-maximized="0"
     inkscape:current-layer="layer1" /><defs
     id="defs1" /><g
     inkscape:label="Layer 1"
     inkscape:groupmode="layer"
     id="layer1"
     transform="translate(-45.147785,-25.326809)"><path
       id="path10"
       style="fill:#bf9955;fill-opacity:1;stroke:none;stroke-width:0.499999;stroke-linecap:round;stroke-linejoin:round;stroke-dasharray:none;stroke-opacity:1"
       d="M 104.92553 25.326809 A 59.777538 59.777538 0 0 0 45.147785 85.104556 A 59.777538 59.777538 0 0 0 104.92553 144.88179 A 59.777538 59.777538 0 0 0 164.70276 85.104556 A 59.777538 59.777538 0 0 0 164.68622 84.435863 A 50.338978 48.372612 0 0 1 114.42418 131.77613 A 50.338978 48.372612 0 0 1 64.08513 83.403884 A 50.338978 48.372612 0 0 1 114.42418 35.031126 A 50.338978 48.372612 0 0 1 162.48843 69.050238 A 59.777538 59.777538 0 0 0 104.92553 25.326809 z " /><g
       id="g10"><path
         style="fill:#292a3e;fill-opacity:1;stroke:none;stroke-width:0.499999;stroke-linecap:round;stroke-linejoin:round;stroke-dasharray:none;stroke-opacity:1"
         d="m 155.22417,81.932386 c -4.57966,-1.975473 -19.88857,-6.782967 -22.34175,-7.071577 -1.31321,-7.800774 -1.9087,-10.462632 -11.45716,-20.57838 0,0 4.87126,-20.829542 3.5595,-18.242456 -4.00444,7.89765 -11.56838,12.12456 -11.56838,12.12456 v 6.229132 c 4.11941,0.560997 19.01809,8.554021 16.85039,21.630195 8.71029,1.832316 13.31198,2.664355 18.02597,6.073741 0.28549,17.493185 -17.81203,7.300785 -22.95449,11.637179 -8.34099,7.03357 -5.84339,19.09086 5.02203,19.13005 0,0 -11.07357,-9.15612 -3.44337,-14.364095 19.71282,0.528015 29.28139,-8.213801 28.30726,-16.568349 z"
         id="path4"
         sodipodi:nodetypes="cccsccccsccc" /><path
         style="fill:#292a3e;fill-opacity:1;stroke:none;stroke-width:0.499999;stroke-linecap:round;stroke-linejoin:round;stroke-dasharray:none;stroke-opacity:1"
         d="m 111.29965,60.289093 c -0.007,-7.393538 0.14614,-28.024543 0.14614,-28.024543 L 98.338988,47.668889 c 0,0 1.41586,5.671599 -2.528432,11.63654 -1.755639,2.655048 -3.41868,4.003255 -3.292767,8.009362 z"
         id="path5"
         sodipodi:nodetypes="cccscc" /><path
         style="fill:#292a3e;fill-opacity:1;stroke:none;stroke-width:0.499999;stroke-linecap:round;stroke-linejoin:round;stroke-dasharray:none;stroke-opacity:1"
         d="m 127.77184,75.962814 c 0.43475,-0.110362 -0.50046,-4.603682 -1.50793,-5.569348 l -7.90051,-2.641679 c -0.0838,0.01676 0.63575,5.175213 5.0913,7.052748 z"
         id="path6"
         sodipodi:nodetypes="ccccc" /><path
         style="fill:#292a3e;fill-opacity:1;stroke:none;stroke-width:0.499999;stroke-linecap:round;stroke-linejoin:round;stroke-dasharray:none;stroke-opacity:1"
         d="M 94.035943,48.841384 C 66.14148,62.643123 49.758543,100.87888 75.184874,125.45517 l 40.391946,-0.65333 C 101.02909,113.00708 83.010455,94.904069 88.824691,78.233156 90.387732,71.756842 84.20209,65.231044 91.349494,58.27581 c 3.007819,-4.547434 2.726839,-7.55418 2.686449,-9.434426 z"
         id="path7"
         sodipodi:nodetypes="cccccc" /></g></g></svg>
